<?xml version="1.0" encoding="UTF-8"?>
<svg id="Layer_1" data-name="Layer 1" xmlns="http://www.w3.org/2000/svg" viewBox="0 0 960 960">
  <defs>
    <style>
      .cls-1 {
        fill: #47848f;
      }

      .cls-2 {
        fill-rule: evenodd;
      }

      .cls-2, .cls-3 {
        fill: #a2ecfb;
      }

      .cls-4 {
        fill: none;
        stroke: #a2ecfb;
        stroke-linecap: round;
        stroke-width: 3.6px;
      }

      .cls-5 {
        fill: #2f3242;
      }
    </style>
  </defs>
  <g>
    <path class="cls-1" d="m209.6,910.27h51.17c1.46,0,2.69-1.23,2.69-2.69s-1.23-2.69-2.69-2.69h-48.26v-31.46h42.66c1.46,0,2.69-1.23,2.69-2.69s-1.23-2.69-2.69-2.69h-42.66v-30.79h47.7c1.46,0,2.69-1.23,2.69-2.69s-1.23-2.69-2.69-2.69h-50.61c-1.57,0-2.91,1.34-2.91,2.91v72.55c0,1.57,1.34,2.91,2.91,2.91h0Zm89.38-2.91c0,1.57,1.34,2.91,2.91,2.91h46.69c1.46,0,2.69-1.23,2.69-2.69s-1.23-2.69-2.69-2.69h-43.78v-70.54c0-1.57-1.34-2.91-2.91-2.91s-2.91,1.34-2.91,2.91v73h0Zm89.49,2.91h51.17c1.46,0,2.69-1.23,2.69-2.69s-1.23-2.69-2.69-2.69h-48.26v-31.46h42.66c1.46,0,2.69-1.23,2.69-2.69s-1.23-2.69-2.69-2.69h-42.66v-30.79h47.7c1.46,0,2.69-1.23,2.69-2.69s-1.23-2.69-2.69-2.69h-50.61c-1.57,0-2.91,1.34-2.91,2.91v72.55c0,1.57,1.34,2.91,2.91,2.91h0Zm124.87,1.34c13.1,0,21.72-4.81,29.67-12.2.45-.45.9-1.12.9-2.02,0-1.46-1.34-2.8-2.8-2.8-.9,0-1.57.45-2.02.9-7.39,7.05-14.89,10.86-25.53,10.86-18.7,0-33.14-15.45-33.14-35.27v-.22c0-19.71,14.22-35.04,33.03-35.04,10.97,0,18.47,4.25,24.97,10.19.45.45,1.23.78,2.02.78,1.57,0,3.02-1.34,3.02-2.91,0-1.01-.56-1.79-1.12-2.35-7.61-6.49-15.79-10.97-28.77-10.97-22.62,0-39.19,18.36-39.19,40.53v.22c0,22.5,16.57,40.31,38.96,40.31h0Zm86.13-3.81c0,1.57,1.34,2.91,2.91,2.91s2.91-1.34,2.91-2.91v-70.54h25.08c1.46,0,2.69-1.23,2.69-2.69s-1.23-2.69-2.69-2.69h-55.98c-1.46,0-2.69,1.23-2.69,2.69s1.23,2.69,2.69,2.69h25.08v70.54h0Zm68.1,0c0,1.57,1.34,2.91,2.91,2.91s2.91-1.34,2.91-2.91v-30.01h25.64l24.07,31.35c.67.9,1.46,1.57,2.58,1.57,1.57,0,3.02-1.46,3.02-3.02,0-.67-.34-1.34-.9-2.02l-22.28-28.89c13.21-1.79,22.95-9.29,22.95-22.39v-.22c0-5.6-2.24-10.86-5.93-14.55-4.7-4.7-12.43-7.73-22.06-7.73h-30.01c-1.57,0-2.91,1.34-2.91,2.91v73h0Zm5.82-35.27v-35.27h26.76c14.22,0,22.5,6.61,22.5,17.13v.22c0,11.31-9.74,17.91-22.84,17.91h-26.42Zm128.23,39.07c23.74,0,39.52-19.15,39.52-40.53v-.22c0-21.38-15.56-40.31-39.3-40.31s-39.52,19.15-39.52,40.53v.22c0,21.38,15.56,40.31,39.3,40.31h0Zm.22-5.26c-19.37,0-33.48-15.9-33.48-35.27v-.22c0-19.37,13.88-35.04,33.25-35.04s33.48,15.9,33.48,35.27v.22c0,19.37-13.88,35.04-33.25,35.04h0Zm76.39,1.57c0,1.57,1.23,2.8,2.8,2.8s2.8-1.23,2.8-2.8v-67.51l53.85,68.3c.9,1.12,1.79,1.9,2.91,1.9h.45c1.34,0,2.35-1.12,2.35-2.46v-73.89c0-1.57-1.23-2.8-2.8-2.8s-2.8,1.23-2.8,2.8v66.06l-52.85-67.06c-.78-1.01-1.68-1.68-2.91-1.68h-.9c-1.57,0-2.91,1.34-2.91,2.91v73.45h0Z"/>
    <g>
      <path class="cls-1" d="m60.15,826.93c-18.51-3.37-33.14.16-38.97,10.26-4.35,7.54-3.11,17.53,3.02,28.21.52.91,1.68,1.22,2.59.7.91-.52,1.22-1.68.7-2.59-5.52-9.62-6.59-18.25-3.02-24.43,4.84-8.39,17.9-11.54,35-8.42,1.03.19,2.02-.5,2.21-1.53s-.5-2.02-1.53-2.21h0Zm-26.33,51.45c7.48,8.22,17.2,15.94,28.29,22.34,26.84,15.5,55.42,19.64,69.51,10.04.87-.59,1.09-1.77.5-2.64s-1.77-1.09-2.64-.5c-12.61,8.6-39.75,4.66-65.47-10.19-10.76-6.21-20.17-13.68-27.38-21.6-.71-.78-1.91-.83-2.68-.13-.78.71-.83,1.91-.13,2.68h0Z"/>
      <path class="cls-1" d="m127.13,876.08c12.12-14.31,16.35-28.71,10.53-38.79-4.28-7.42-13.33-11.33-25.37-11.49-1.05-.01-1.91.82-1.92,1.87-.01,1.05.82,1.91,1.87,1.92,10.82.14,18.62,3.51,22.13,9.59,4.83,8.37,1.06,21.21-10.14,34.44-.68.8-.58,2,.22,2.67.8.68,2,.58,2.67-.22h0Zm-31.14-48.51c-10.96,2.35-22.62,6.94-33.82,13.4-27.71,16-45.79,39.59-43.28,56.7.15,1.04,1.12,1.75,2.15,1.6,1.04-.15,1.75-1.12,1.6-2.15-2.23-15.19,14.91-37.55,41.42-52.86,10.86-6.27,22.16-10.72,32.71-12.98,1.02-.22,1.68-1.23,1.46-2.25-.22-1.02-1.23-1.68-2.25-1.46h0Z"/>
      <path class="cls-1" d="m51.09,909.52c6.34,17.69,16.7,28.58,28.36,28.58,8.5,0,16.36-5.79,22.5-16,.54-.9.25-2.06-.65-2.6s-2.06-.25-2.6.65c-5.51,9.17-12.28,14.16-19.24,14.16-9.68,0-18.93-9.71-24.78-26.07-.35-.99-1.44-1.5-2.43-1.15s-1.5,1.44-1.15,2.43h0Zm57.87-3.46c3.28-10.48,5.04-22.57,5.04-35.17,0-31.44-11-58.54-26.68-65.5-.96-.43-2.08,0-2.5.96-.43.96,0,2.08.96,2.5,13.98,6.21,24.42,31.93,24.42,62.03,0,12.22-1.71,23.93-4.87,34.04-.31,1,.24,2.06,1.24,2.38,1,.31,2.06-.24,2.38-1.24h0Z"/>
      <path class="cls-1" d="m144.7,904.21c0-5.02-4.07-9.08-9.08-9.08s-9.08,4.07-9.08,9.08,4.07,9.08,9.08,9.08,9.08-4.07,9.08-9.08h0Zm-3.8,0c0,2.92-2.37,5.29-5.29,5.29s-5.29-2.37-5.29-5.29,2.37-5.29,5.29-5.29,5.29,2.37,5.29,5.29h0Z"/>
      <path class="cls-1" d="m23.14,913.29c5.02,0,9.08-4.07,9.08-9.08s-4.07-9.08-9.08-9.08-9.08,4.07-9.08,9.08,4.07,9.08,9.08,9.08h0Zm0-3.8c-2.92,0-5.29-2.37-5.29-5.29s2.37-5.29,5.29-5.29,5.29,2.37,5.29,5.29-2.37,5.29-5.29,5.29h0Z"/>
      <path class="cls-1" d="m79.44,814.66c5.02,0,9.08-4.07,9.08-9.08s-4.07-9.08-9.08-9.08-9.08,4.07-9.08,9.08,4.07,9.08,9.08,9.08h0Zm0-3.8c-2.92,0-5.29-2.37-5.29-5.29s2.37-5.29,5.29-5.29,5.29,2.37,5.29,5.29-2.37,5.29-5.29,5.29h0Z"/>
      <path class="cls-1" d="m80.83,877.32c-3.55.77-7.04-1.49-7.81-5.04-.77-3.55,1.49-7.04,5.04-7.81,3.55-.77,7.04,1.49,7.81,5.04.77,3.55-1.49,7.04-5.04,7.81h0Z"/>
    </g>
  </g>
  <g>
    <circle class="cls-5" cx="499.51" cy="395.42" r="385.17"/>
    <path class="cls-3" d="m423.65,247.99c5.89,1.07,11.53-2.83,12.6-8.71,1.07-5.89-2.83-11.53-8.71-12.6l-3.89,21.31Zm-137.1,24.51l9.39,5.41h0l-9.39-5.41Zm1.95,104.48c2.97,5.19,9.59,6.99,14.78,4.02,5.19-2.97,6.99-9.59,4.02-14.78l-18.8,10.76Zm52.69,34.97c-4.02-4.43-10.87-4.76-15.3-.73-4.43,4.02-4.76,10.87-.73,15.3l16.04-14.57Zm96.63,90.01l-5.42,9.38,5.42-9.38Zm259.82,47.03c4.94-3.37,6.21-10.11,2.84-15.05-3.37-4.94-10.11-6.21-15.05-2.84l12.22,17.89ZM427.54,226.67c-33.52-6.12-64.74-6.41-90.68-.14-25.99,6.28-47.48,19.38-59.69,40.56l18.77,10.82c8.39-14.56,23.89-24.97,46-30.31,22.16-5.35,50.17-5.36,81.71.4l3.89-21.31Zm-150.37,40.41c-18.13,31.46-10.7,71.4,11.33,109.89l18.8-10.76c-20.5-35.81-23.8-66.74-11.37-88.31l-18.77-10.82Zm47.98,159.43c27.74,30.53,64.32,60,107.24,84.82l10.85-18.76c-41.18-23.81-75.95-51.91-102.05-80.63l-16.04,14.57Zm107.24,84.82c51.13,29.57,103.51,48.06,149.78,54.77,45.88,6.66,87.5,1.97,115.47-17.13l-12.22-17.89c-21.45,14.65-56.57,19.9-100.13,13.58-43.17-6.27-92.94-23.69-142.05-52.09l-10.85,18.76Zm316.03,9.92c0-20.91-16.93-37.89-37.84-37.89v21.67c8.92,0,16.18,7.25,16.18,16.22h21.67Zm-37.84-37.89c-20.92,0-37.84,16.98-37.84,37.89h21.67c0-8.97,7.26-16.22,16.18-16.22v-21.67Zm-37.84,37.89c0,20.91,16.93,37.89,37.84,37.89v-21.67c-8.92,0-16.18-7.25-16.18-16.22h-21.67Zm37.84,37.89c20.91,0,37.84-16.98,37.84-37.89h-21.67c0,8.97-7.26,16.22-16.18,16.22v21.67Z"/>
    <path class="cls-3" d="m664.94,403.74c-3.86,4.57-3.29,11.4,1.28,15.27,4.57,3.86,11.4,3.29,15.27-1.28l-16.55-13.99Zm47.12-130.88l-9.39,5.41,9.39-5.41Zm-89.13-50.52c-5.98-.08-10.9,4.71-10.97,10.69-.08,5.98,4.71,10.9,10.69,10.97l.28-21.66Zm-57.57,27.92c5.85-1.25,9.57-7.01,8.32-12.86-1.26-5.85-7.02-9.57-12.86-8.32l4.55,21.18Zm-127.33,39.08l5.42,9.38-5.42-9.38Zm-169.93,207.83c.87,5.92,6.37,10.02,12.29,9.15,5.92-.87,10.02-6.37,9.15-12.29l-21.44,3.14Zm413.39-79.44c21.95-25.97,37.72-52.83,45.23-78.41,7.52-25.62,6.91-50.74-5.27-71.87l-18.77,10.82c8.38,14.53,9.65,33.15,3.25,54.95-6.41,21.85-20.34,46.09-40.99,70.52l16.55,13.99Zm39.96-150.27c-17.84-30.95-55.18-44.54-98.51-45.11l-.28,21.66c40.16.52,67.8,13.06,80.03,34.27l18.77-10.82Zm-160.63-38.37c-40.62,8.72-84.84,25.8-128.21,50.88l10.85,18.76c41.6-24.06,83.72-40.26,121.91-48.45l-4.55-21.18Zm-128.21,50.88c-52.64,30.44-95.79,67.89-124.78,105.79-28.72,37.54-44.74,77.15-39.72,111.41l21.44-3.14c-3.77-25.76,8.21-59.44,35.49-95.11,27.01-35.3,67.86-70.96,118.42-100.2l-10.85-18.76Z"/>
    <path class="cls-3" d="m409.73,535.22c-2.01-5.63-8.21-8.57-13.85-6.55-5.63,2.01-8.57,8.21-6.55,13.85l20.4-7.29Zm177.43,55.35c3.08-5.13,1.42-11.78-3.71-14.86-5.13-3.08-11.78-1.42-14.86,3.71l18.58,11.15Zm6.06-67.68c-1.78,5.71,1.4,11.79,7.11,13.57,5.71,1.78,11.79-1.4,13.57-7.11l-20.68-6.46Zm28.97-127.06h-10.83,10.83Zm-91.64-249.99c-5.47-2.43-11.87.03-14.3,5.5-2.43,5.47.03,11.87,5.5,14.3l8.8-19.8Zm-141.21,396.68c11.48,32.09,26.82,59.27,45.2,78.62,18.41,19.37,40.47,31.45,64.88,31.45v-21.67c-16.76,0-33.5-8.22-49.17-24.71-15.7-16.53-29.71-40.79-40.51-70.99l-20.4,7.29Zm110.08,110.07c35.42,0,65.65-25.21,87.75-62.02l-18.58-11.15c-20.45,34.08-44.92,51.51-69.17,51.51v21.67Zm114.49-123.24c12.16-38.92,19.12-84.68,19.12-133.52h-21.67c0,46.86-6.69,90.42-18.13,127.06l20.68,6.46Zm19.12-133.52c0-59.9-10.47-115.22-28.21-158.99-17.58-43.37-43.05-77.11-74.27-91l-8.8,19.8c23.73,10.55,46.29,38.14,62.99,79.34,16.54,40.81,26.62,93.31,26.62,150.85h21.67Z"/>
    <path class="cls-4" d="m737.59,521.25c0-14.94-12.09-27.05-27.01-27.05s-27.01,12.11-27.01,27.05,12.09,27.05,27.01,27.05,27.01-12.11,27.01-27.05h0Z"/>
    <path class="cls-4" d="m287.75,548.3c14.92,0,27.01-12.11,27.01-27.05s-12.09-27.05-27.01-27.05-27.01,12.11-27.01,27.05,12.09,27.05,27.01,27.05h0Z"/>
    <ellipse class="cls-4" cx="499.41" cy="149.89" rx="27.01" ry="27.05"/>
    <path class="cls-2" d="m504.63,420.01c-13.34,2.89-26.48-5.6-29.36-18.96-2.88-13.36,5.59-26.52,18.93-29.41,13.34-2.89,26.47,5.6,29.36,18.96,2.88,13.36-5.59,26.52-18.93,29.41Z"/>
  </g>
</svg>